<?xml version="1.0" encoding="UTF-8"?>
<svg width="248px" height="248px" viewBox="0 0 248 248" version="1.1" xmlns="http://www.w3.org/2000/svg" xmlns:xlink="http://www.w3.org/1999/xlink">
    <!-- Generator: Sketch 49.1 (51147) - http://www.bohemiancoding.com/sketch -->
    <title>Page 1</title>
    <desc>Created with Sketch.</desc>
    <defs>
        <polygon id="path-1" points="0.0002 0.2024 247.798 0.2024 247.798 247.9994 0.0002 247.9994"></polygon>
        <linearGradient x1="50%" y1="0%" x2="50%" y2="100%" id="linearGradient-3">
            <stop stop-color="#8A95FF" offset="0%"></stop>
            <stop stop-color="#7073FE" offset="100%"></stop>
        </linearGradient>
    </defs>
    <g id="Page-1" stroke="none" stroke-width="1" fill="none" fill-rule="evenodd">
        <g id="Artboard-Copy-5" transform="translate(-209.000000, -212.000000)">
            <g id="Page-1" transform="translate(209.000000, 211.000000)">
                <g id="Group-3" transform="translate(0.000000, 0.798000)">
                    <mask id="mask-2" fill="white">
                        <use xlink:href="#path-1"></use>
                    </mask>
                    <g id="Clip-2"></g>
                    <path d="M247.798,123.899 C247.798,192.326 192.326,247.797 123.899,247.797 C55.471,247.797 0,192.326 0,123.899 C0,55.471 55.471,0 123.899,0 C192.326,0 247.798,55.471 247.798,123.899" id="Fill-1" fill="url(#linearGradient-3)" mask="url(#mask-2)"></path>
                </g>
                <path d="M134.815,133.408 C134.815,139.708 129.708,144.815 123.407,144.815 C117.107,144.815 112,139.708 112,133.408 C112,127.107 117.107,122 123.407,122 C129.708,122 134.815,127.107 134.815,133.408" id="Fill-4" fill="#FFFFFF"></path>
                <path d="M123.714429,73 C98.8794286,73 77.1044286,91.759 73.5284286,116.359 C72.4464286,123.808 73.0284286,131.482 75.2524286,138.675 C75.8434286,140.586 76.5474286,142.462 77.3584286,144.29 C78.1464286,146.069 78.8324286,147.948 80.4554286,149.11 C83.1294286,151.023 86.7394286,151.312 89.6824286,149.848 C92.4654286,148.462 94.3784286,145.661 94.6444286,142.563 C94.7064286,141.825 94.7604286,140.925 94.5304286,140.21 C94.2234286,139.254 93.5164286,138.31 93.1024286,137.382 C92.2174286,135.402 91.5254286,133.338 91.0394286,131.226 C89.5304286,124.671 90.0434286,117.696 92.5074286,111.438 C96.9424286,100.176 107.439429,91.982 119.450429,90.458 C131.646429,88.91 143.956429,94.307 151.071429,104.331 C154.616429,109.325 156.737429,115.262 157.159429,121.372 C157.423429,125.177 157.039429,129.022 156.016429,132.697 C155.477429,134.633 154.763429,136.521 153.887429,138.328 C153.490429,139.146 153.004429,139.863 152.842429,140.755 C152.692429,141.582 152.766429,142.498 152.906429,143.32 C154.064429,150.05 162.367429,153.079 167.589429,148.653 C168.853429,147.582 169.488429,145.618 170.147429,144.115 C171.001429,142.165 171.737429,140.163 172.343429,138.122 C173.484429,134.276 174.163429,130.296 174.364429,126.289 C174.991429,113.86 170.964429,101.459 163.124429,91.792 C155.566429,82.474 144.761429,76.014 132.955429,73.84 C129.909429,73.279 126.812429,73 123.714429,73" id="Fill-6" fill="#FFFFFF"></path>
            </g>
        </g>
    </g>
</svg>