<?xml version="1.0" encoding="UTF-8"?>
<svg class="persona-svg-3" width="182px" height="117px" viewBox="0 0 182 117" version="1.1" xmlns="http://www.w3.org/2000/svg" xmlns:xlink="http://www.w3.org/1999/xlink"><defs><linearGradient x1="50%" y1="0%" x2="50%" y2="100%" id="personaGradient-4"><stop stop-color="#00FF99" offset="0%"></stop><stop stop-color="#00DB88" offset="100%"></stop></linearGradient></defs><g id="welcome-svg-4" transform="translate(-1158.000000, -2456.000000)" fill="url(#personaGradient-4)"><path d="M1234,2550 C1227.92487,2550 1223,2545.07513 1223,2539 C1223,2532.92487 1227.92487,2528 1234,2528 C1240.07513,2528 1245,2532.92487 1245,2539 C1245,2545.07513 1240.07513,2550 1234,2550 Z M1336,2518 C1323.06316,2548.71017 1300.80682,2563.02955 1273.33534,2571.89132 C1245.86386,2580.75309 1348.66037,2490.95384 1215.73385,2514.28983 C1082.80733,2537.62582 1216.91542,2459.64226 1273.33534,2456.68834 C1329.75527,2453.73441 1348.93684,2487.28983 1336,2518 Z" id="Oval-4"></path></g></svg>